M48
; DRILL file {KiCad (5.1.4)-1} date 1/27/2020 11:12:46 PM
; FORMAT={2:4/ absolute / inch / suppress leading zeros}
; #@! TF.CreationDate,2020-01-27T23:12:46+01:00
; #@! TF.GenerationSoftware,Kicad,Pcbnew,(5.1.4)-1
FMAT,2
INCH,TZ
T1C0.0157
T2C0.0236
T3C0.0315
T4C0.0354
T5C0.0362
T6C0.0394
T7C0.0433
T8C0.0591
T9C0.0917
T10C0.0670
T11C0.1570
%
G90
G05
T1
X67900Y-40500
X68600Y-40500
X72800Y-38900
T2
X44800Y-52950
X45391Y-52950
T3
X49900Y-35600
X52900Y-35600
X55600Y-41600
X55600Y-47600
X56600Y-41600
X56600Y-47600
X57600Y-41600
X57600Y-47600
X58600Y-41600
X58600Y-47600
X59600Y-41600
X59600Y-47600
X60600Y-41600
X60600Y-47600
X61600Y-41600
X61600Y-47600
X62600Y-41600
X62600Y-47600
X63600Y-41600
X63600Y-47600
X64600Y-41600
X64600Y-47600
X65600Y-41600
X65600Y-47600
X66600Y-41600
X66600Y-47600
X67600Y-41600
X67600Y-47600
X68600Y-41600
X68600Y-47600
X69600Y-41600
X69600Y-47600
X70600Y-41600
X70600Y-47600
X71600Y-41600
X71600Y-47600
X72600Y-41600
X72600Y-47600
X73600Y-41600
X73600Y-47600
X74600Y-41600
X74600Y-47600
X70600Y-37900
X73600Y-37900
X85800Y-44850
X88800Y-44850
X68900Y-52100
X69884Y-52100
X64616Y-52100
X65600Y-52100
X62616Y-49500
X63600Y-49500
X76400Y-40400
X76400Y-43400
X78100Y-40400
X78100Y-43400
X69600Y-39900
X72600Y-39900
X49900Y-38900
X52900Y-38900
X85750Y-37400
X88750Y-37400
X66229Y-50100
X68150Y-50100
X65400Y-39700
X66384Y-39700
X59700Y-32700
X59700Y-35700
X60700Y-32700
X60700Y-35700
X61700Y-32700
X61700Y-35700
X62700Y-32700
X62700Y-35700
X63700Y-32700
X63700Y-35700
X64700Y-32700
X64700Y-35700
X65700Y-32700
X65700Y-35700
X66700Y-32700
X66700Y-35700
X67700Y-32700
X67700Y-35700
X68700Y-32700
X68700Y-35700
X69700Y-32700
X69700Y-35700
X70700Y-32700
X70700Y-35700
X71700Y-32700
X71700Y-35700
X72700Y-32700
X72700Y-35700
T4
X49950Y-40450
X49950Y-41450
X75450Y-38350
X76450Y-38350
X77950Y-38350
X78950Y-38350
T5
X46313Y-36216
X46313Y-37200
X47100Y-36216
X47100Y-37200
T6
X48300Y-54300
X49300Y-54300
X50300Y-54300
X51300Y-54300
X52300Y-54300
X73700Y-52300
X74700Y-52300
X75700Y-52300
X76700Y-52300
X77700Y-52300
X78700Y-52300
X79700Y-52300
X80700Y-52300
X77550Y-33850
X78550Y-33850
X55700Y-54300
X56700Y-54300
X57700Y-54300
X58700Y-54300
X59700Y-54300
X60700Y-54300
X61700Y-54300
X62700Y-54300
X56700Y-33300
X56700Y-34300
X56700Y-35300
X80700Y-47300
X80700Y-48300
X80700Y-49300
X81700Y-47300
X81700Y-48300
X81700Y-49300
X80700Y-30700
X80700Y-31700
X75350Y-33700
X75350Y-34700
X58700Y-30300
X59700Y-30300
X60700Y-30300
X61700Y-30300
X62700Y-30300
X63700Y-30300
X64700Y-30300
X65700Y-30300
X64700Y-54300
X65700Y-54300
X66700Y-54300
X67700Y-54300
X68700Y-54300
X69700Y-54300
X70700Y-54300
X71700Y-54300
X73700Y-54300
X74700Y-54300
X75700Y-54300
X76700Y-54300
X77700Y-54300
X78700Y-54300
X79700Y-54300
X80700Y-54300
X48300Y-52300
X49300Y-52300
X50300Y-52300
X51300Y-52300
X52300Y-52300
X48913Y-45350
X52850Y-45350
X68300Y-30200
X69300Y-30200
X70300Y-30200
X71300Y-30200
X72300Y-30200
X73300Y-30200
X74300Y-30200
X75300Y-30200
X80700Y-35700
X80700Y-36700
T7
X46700Y-29841
X46700Y-32400
X48472Y-29841
X48472Y-32400
X50600Y-29841
X50600Y-32400
X52372Y-29841
X52372Y-32400
T9
X45246Y-34338
X45246Y-39078
T10
X87650Y-39100
X87650Y-43100
X87650Y-31700
X87650Y-35700
T11
X87650Y-41100
X87650Y-33700
T6
G00X44138Y-47506
M15
G01X44138Y-48294
M16
G05
G00X44925Y-49750
M15
G01X45713Y-49750
M16
G05
G00X46500Y-47506
M15
G01X46500Y-48294
M16
G05
T8
G00X89409Y-40056
M15
G01X88662Y-39581
M16
G05
G00X89650Y-42100
M15
G01X89422Y-42084
M16
G05
G00X89409Y-32656
M15
G01X88662Y-32181
M16
G05
G00X89650Y-34700
M15
G01X89422Y-34684
M16
G05
T0
M30
